<?xml version="1.0" encoding="UTF-8"?> <svg xmlns="http://www.w3.org/2000/svg" width="355" height="232" viewBox="0 0 355 232" fill="none"><path d="M255.287 2.94607C252.299 4.73142 242.401 11.6943 233.624 18.8357C224.66 25.9771 213.455 34.3683 208.6 37.5819C200.756 42.7595 199.449 43.1165 195.34 41.1527C191.792 39.1888 188.244 39.1888 178.346 40.7956C146.785 45.7946 132.406 42.5809 112.05 25.6201C95.0557 11.6943 81.6097 5.98117 62.001 4.55289C47.061 3.48167 45.567 3.66021 36.4162 8.48067C28.7595 12.4084 23.7172 17.2289 13.2592 30.4405L0 47.4014L0.93375 58.1135C2.6145 80.609 16.6207 98.9982 34.9222 103.283C40.1512 104.533 50.4225 107.211 57.7057 108.996C82.7302 115.602 90.2002 113.817 112.237 96.8557C135.207 79.1807 155.376 69.1827 155.376 75.4315C155.376 76.6812 152.948 79.3593 149.773 80.9661C141.556 85.608 132.592 97.3913 123.068 115.423C114.664 131.313 105.14 142.918 100.471 142.918C99.1642 142.918 91.881 139.169 84.411 134.527C73.206 127.742 68.9107 125.957 60.3202 125.421C40.8982 124.172 19.422 135.776 10.2712 152.38C5.78925 160.95 5.04225 175.233 8.77725 182.91C12.8857 190.944 23.5305 198.264 31.374 198.264C38.2837 198.264 48.9285 201.478 52.4767 204.513C58.8262 210.226 47.9947 224.866 37.35 225.223L31.1872 225.401L39.2175 228.079C49.8622 231.65 55.6515 230.043 65.1757 220.402C78.6217 207.191 79.5555 190.765 67.4167 184.874C61.0672 181.66 55.278 181.482 43.8862 184.338C35.4825 186.302 35.109 186.302 29.88 180.589C27.0787 177.554 24.651 173.626 24.651 172.019C24.651 162.557 40.8982 142.918 48.7417 142.918C50.796 142.918 58.0792 145.417 64.989 148.274C86.8387 157.736 89.2665 157.915 124.936 151.488C143.984 148.095 161.725 125.957 166.768 98.9982C169.942 81.8588 169.382 82.3944 179.093 83.1085C184.696 83.4656 188.617 84.7153 190.111 86.6792C192.539 89.8929 200.383 107.389 206.545 123.458C210.654 134.527 221.112 145.596 232.69 151.488C241.094 155.772 244.269 156.308 260.89 156.308C279.004 156.308 280.125 156.13 297.119 148.452C306.83 144.168 316.915 140.597 319.529 140.597C328.867 140.597 337.831 157.201 335.403 169.52C333.909 176.483 324.945 185.409 315.981 188.802C302.908 193.979 295.252 205.227 297.119 217.01C299.547 233.614 335.776 237.72 346.795 222.723C350.716 217.189 348.849 217.01 343.433 222.188C337.457 227.901 327.746 228.436 321.397 223.437C311.499 215.76 318.035 199.157 334.656 189.516C344.367 183.981 348.849 179.875 352.21 173.626C356.319 165.949 355.945 159.7 350.716 148.988C342.313 131.67 320.463 119.708 301.601 122.208C297.119 122.743 287.221 126.136 279.751 129.528C272.281 132.92 264.438 135.776 262.57 135.776C260.143 135.776 257.341 132.563 253.606 125.957C246.51 112.924 226.528 94.3562 211.961 87.0363C202.81 82.5729 200.196 80.4305 200.196 77.2168C200.196 71.6822 202.81 72.2178 218.124 81.3232C225.407 85.7865 234.371 89.8929 237.733 90.4285C241.281 90.9641 251.926 93.8206 261.45 96.6772C291.517 105.783 300.481 103.64 317.662 84.0012C331.668 67.933 334.656 61.3272 334.656 47.0443C334.656 31.1547 330.921 24.7274 316.354 15.0865C298.426 3.30314 266.679 -2.9456 255.287 2.94607ZM282.553 4.37435C307.204 11.5158 312.246 13.3011 312.246 14.7294C312.246 15.4436 310.565 16.1577 308.511 16.1577C306.457 16.1577 298.613 19.0143 291.143 22.585C283.86 26.1557 273.589 29.7264 268.36 30.4405L259.022 31.8688L267.052 32.0473C271.721 32.0473 279.191 30.6191 284.607 28.2981C293.758 24.5489 294.318 24.5489 296.185 27.584C301.228 35.7966 305.523 39.5458 313.366 42.7595C323.264 47.0443 325.132 50.615 321.023 57.5779C319.342 60.4345 318.782 62.5769 320.089 62.5769C321.397 62.5769 321.397 63.4696 319.903 65.0764C317.848 67.5759 303.282 70.4325 284.233 72.2178C276.577 73.1105 276.203 72.932 279.378 70.611C283.673 67.3974 281.992 67.0403 276.95 70.0754C274.149 71.6822 272.468 71.3252 267.239 67.5759C263.691 65.0764 258.462 62.2199 255.287 61.1486C246.697 58.1135 228.582 57.0423 216.63 58.6491C210.654 59.5418 205.798 59.7204 205.798 59.1848C205.798 58.4706 211.401 56.1496 218.124 53.8287C224.847 51.5077 234.371 46.8658 239.04 43.2951C243.895 39.7244 249.871 35.7966 252.486 34.5468C256.221 32.7615 256.408 32.2259 253.606 32.2259C251.739 32.2259 247.07 34.5468 243.335 37.4034C235.678 43.2951 222.046 50.0794 218.497 50.0794C217.19 49.9009 219.431 48.2941 223.54 46.1517C232.69 41.6883 245.016 30.6191 245.016 26.8698C245.203 24.7274 245.763 24.9059 247.817 27.584C249.311 29.5479 250.618 30.4405 250.618 29.7264C250.618 26.5127 243.895 20.4425 242.215 21.8708C241.094 22.7635 235.865 26.1557 230.263 29.1908C224.66 32.4044 220.178 35.7966 220.365 36.6893C220.552 39.1888 209.72 45.4375 208.039 43.8307C206.545 42.5809 206.919 42.2239 234.558 20.6211C259.582 0.982177 264.811 -0.803178 282.553 4.37435ZM75.0735 8.83774C75.0735 9.73041 74.1397 10.8016 73.0192 11.1587C71.712 11.5158 70.5915 14.0153 70.218 16.5148C69.8445 20.264 71.3385 22.2279 76.5675 25.7986C86.2785 32.0473 93.5617 34.3683 99.7245 33.1186C105.887 31.6903 106.074 30.6191 101.032 24.3703C95.2425 17.4074 99.5377 18.8357 110.929 27.7625C116.532 32.2259 126.803 38.1176 133.526 41.1527C140.436 44.1878 146.038 46.8658 146.038 47.4014C146.038 47.937 140.436 46.1517 133.526 43.6522C116.905 37.5819 109.622 35.9751 98.9775 35.7966C93.375 35.7966 86.2785 34.0112 78.6217 30.4405L66.8565 25.0845L58.266 29.9049C38.097 41.3312 40.1512 40.6171 35.856 36.1537C30.627 30.9761 28.1992 32.583 30.4402 39.9029C33.0547 48.4726 32.868 49.0082 23.5305 55.257C18.8617 58.2921 14.0062 63.2911 12.8857 66.3262C10.2712 72.7534 6.90975 73.1105 8.5905 66.6832C9.3375 64.1837 9.15075 61.5057 8.217 60.9701C7.28325 60.4345 5.976 56.6853 5.41575 52.5789C4.29525 45.7946 4.8555 44.5448 16.8075 29.5479C32.4945 9.73041 36.603 7.76652 58.266 7.40945C67.6035 7.40945 75.0735 8.1236 75.0735 8.83774ZM89.2665 13.6582C92.8147 16.3362 92.8147 16.3362 89.0797 14.7294C87.0255 13.8367 84.0375 12.587 82.5435 12.0514C80.1157 11.1587 80.1157 10.9802 82.7302 10.9802C84.2242 10.8016 87.2122 12.0514 89.2665 13.6582ZM319.156 27.2269C324.385 34.3683 329.053 47.5799 325.692 46.1517C310.752 39.9029 305.149 36.5107 302.348 31.8688C300.481 28.8337 299.36 26.1557 299.547 25.9771C306.27 21.5138 309.818 19.7284 311.499 19.7284C312.619 19.7284 315.981 23.1206 319.156 27.2269ZM327.746 27.2269C332.041 32.583 334.469 50.0794 331.108 50.0794C329.987 50.0794 329.053 47.2229 329.053 43.4736C329.053 39.7244 326.999 33.6542 324.198 29.0122C318.969 20.6211 321.583 19.3713 327.746 27.2269ZM81.7965 35.7966C87.7725 39.7244 96.1762 45.259 100.098 48.2941C106.634 53.1145 132.779 62.5769 139.689 62.5769C152.014 62.5769 117.652 75.61 97.4835 78.4666C89.8267 79.7163 79.3687 81.6802 74.1397 83.1085C41.832 92.0353 24.0907 89.3572 16.0605 74.7173C12.5122 68.1115 15.5002 62.3984 25.5847 56.1496C30.0667 53.4716 34.5487 49.7224 35.6692 47.5799C38.4705 42.938 61.6275 28.8337 66.8565 28.6552C68.9107 28.6552 75.6337 31.8688 81.7965 35.7966ZM237.546 32.7615C237.546 35.7966 226.528 40.26 224.287 38.1176C222.979 36.8678 224.66 35.261 228.582 33.4756C236.052 29.9049 237.546 29.7264 237.546 32.7615ZM195.527 44.0092C198.328 46.6873 198.142 47.4014 193.846 51.6863C191.232 54.1858 188.431 58.2921 187.497 60.613C186.376 63.4696 184.135 65.0764 180.961 65.4335C178.159 65.612 175.918 65.255 175.918 64.3623C175.918 60.9701 183.762 45.4375 186.563 43.2951C190.672 40.4385 191.792 40.6171 195.527 44.0092ZM109.249 44.1878C107.941 44.5448 105.7 44.5448 104.58 44.1878C103.273 43.6522 104.206 43.2951 106.821 43.2951C109.435 43.2951 110.369 43.6522 109.249 44.1878ZM180.4 47.7585C179.093 50.615 177.786 53.8287 177.786 54.8999C177.786 56.1496 176.479 57.2209 174.985 57.2209C173.304 57.2209 171.623 58.4706 171.063 59.8989C169.569 63.6481 167.141 63.2911 165.647 59.0062C165.087 57.0423 165.834 53.4716 167.888 50.615C171.997 44.3663 174.051 42.938 179.093 42.938C183.015 42.938 183.015 43.1165 180.4 47.7585ZM128.11 47.4014C131.285 49.7224 131.472 50.0794 128.671 50.0794C126.99 50.0794 125.496 49.3653 125.496 48.2941C125.496 47.4014 124.189 47.2229 122.321 47.7585C120.267 48.4726 119.707 48.2941 120.64 46.8658C122.321 44.1878 123.815 44.1878 128.11 47.4014ZM159.111 46.3302C159.111 49.5438 155.749 50.0794 153.508 47.4014C151.641 45.0804 151.828 44.7234 155.189 44.7234C157.243 44.7234 159.111 45.4375 159.111 46.3302ZM166.581 47.0443C166.581 48.2941 165.647 50.258 164.527 51.3292C163.219 52.5789 161.165 57.2209 159.858 62.0413C157.617 70.254 157.43 70.4325 157.43 64.3623C157.243 55.257 160.605 44.7234 163.78 44.7234C165.274 44.7234 166.581 45.7946 166.581 47.0443ZM332.788 55.9711C332.788 62.0413 322.33 76.8598 318.409 76.6812C316.541 76.5027 312.619 75.7886 309.445 74.8959C304.029 73.4676 304.216 73.4676 310.565 74.1817C315.794 74.7173 318.409 73.8247 321.21 70.9681C326.065 65.612 329.053 60.0774 329.053 55.614C329.053 53.4716 329.987 51.8648 330.921 51.8648C332.041 51.8648 332.788 53.6502 332.788 55.9711ZM198.142 62.934C197.955 69.5398 197.768 69.8969 196.461 66.1476C194.22 59.7204 194.22 55.4355 196.461 55.4355C197.581 55.4355 198.328 58.8277 198.142 62.934ZM259.209 64.8979C262.384 66.5047 265.932 68.8257 267.239 70.4325C271.348 75.0744 288.155 79.3593 303.095 79.3593C313.927 79.5378 317.101 80.0734 316.541 81.6802C315.607 83.8226 313.366 84.7153 311.499 83.4656C310.939 83.287 308.698 84.8939 306.27 86.8578C297.679 94.3562 294.505 95.0704 284.794 91.3211C279.004 89.1787 272.281 88.1075 265.558 88.4646C251.926 89.1787 233.251 84.8939 221.299 78.288C215.883 75.4315 211.401 72.7534 211.401 72.3964C211.401 71.5037 228.022 76.3242 243.148 81.5017C255.474 85.7865 263.691 85.608 263.691 81.1446C263.691 77.931 259.769 75.9671 258.275 78.4666C257.155 79.8949 254.727 79.7163 248.564 77.7524C244.082 76.3242 235.305 73.6461 229.142 72.0393C220.178 69.5398 218.871 68.8257 222.979 68.2901C225.781 67.933 233.251 69.0042 239.6 70.4325C245.763 72.0393 251.926 73.2891 253.046 73.2891C257.715 73.1105 245.576 68.1115 238.106 66.8618C233.624 66.3262 230.449 65.0764 231.01 64.3623C231.57 63.4696 229.702 62.3984 226.901 61.8628C223.913 61.5057 228.955 61.3272 237.733 61.5057C247.444 61.8628 255.847 63.2911 259.209 64.8979ZM212.708 63.6481C212.148 64.1837 210.467 64.3623 209.16 63.8267C207.666 63.2911 208.226 62.7555 210.28 62.7555C212.335 62.5769 213.455 63.1125 212.708 63.6481ZM192.166 68.2901C191.605 69.7183 191.045 69.1827 191.045 67.2188C190.858 65.255 191.419 64.1837 191.979 64.8979C192.539 65.4335 192.726 67.0403 192.166 68.2901ZM163.966 79.8949C163.219 80.609 161.912 80.0734 160.978 78.6451C157.99 74.1817 158.924 72.3964 162.286 75.61C163.966 77.2168 164.713 79.1807 163.966 79.8949ZM183.015 76.3242C182.268 80.4305 174.051 81.8588 174.051 78.1095C174.051 76.5027 175.171 74.8959 176.479 74.5388C181.147 72.5749 183.575 73.2891 183.015 76.3242ZM192.726 76.6812C192.726 80.609 189.925 82.93 187.123 81.3232C185.816 80.609 185.816 79.0022 187.123 76.6812C189.738 72.2178 192.726 72.2178 192.726 76.6812ZM301.975 75.0744C302.722 76.1456 301.041 76.8598 298.426 76.8598C295.812 76.8598 293.571 75.9671 293.571 75.0744C293.571 74.0032 295.252 73.2891 297.119 73.2891C299.173 73.2891 301.414 74.0032 301.975 75.0744ZM122.695 76.6812C122.134 77.5739 116.158 80.0734 109.435 82.2158C99.9112 85.2509 96.363 87.3934 93.1882 92.2138C89.2665 97.927 88.5195 98.284 78.8085 98.1055C73.0192 97.927 66.483 98.6411 64.4287 99.8908C59.3865 102.39 58.266 102.39 58.266 100.069C58.266 98.9982 60.3202 97.2128 62.9347 96.1416C69.2842 93.285 68.724 91.1426 61.6275 90.9641C56.5852 90.9641 57.7057 90.2499 67.6035 87.3934C74.3265 85.4295 86.4652 82.5729 94.869 81.3232C103.086 79.8949 112.05 77.931 114.478 77.0383C120.267 74.7173 124.189 74.7173 122.695 76.6812ZM119.52 88.6431C99.351 104.354 87.7725 111.317 83.1037 110.424C80.4892 110.067 81.0495 109.175 85.7182 106.318C88.893 104.354 95.616 99.1767 100.471 94.7133C108.688 87.2148 129.044 75.61 134.46 75.2529C135.954 75.0744 129.231 81.1446 119.52 88.6431ZM17.7412 81.1446C21.663 86.8578 35.856 91.8567 44.2597 90.607C53.5972 89.1787 52.29 92.0353 42.2055 95.4275C28.7595 99.7123 17.181 95.0704 14.3797 84.3583C13.6327 81.6802 12.1387 79.0022 11.0182 78.288C9.52425 77.3954 9.711 76.8598 11.7652 76.8598C13.446 76.8598 16.2472 78.8237 17.7412 81.1446ZM150.707 88.1075C150.707 90.4285 148.466 95.4275 145.852 99.3552C138.195 110.424 134.833 117.387 134.833 122.386C134.833 126.85 136.141 127.564 142.864 127.028C147.159 126.493 146.972 129.885 142.303 132.563C140.249 133.813 138.568 135.776 138.568 137.026C138.568 140.597 131.845 143.096 120.827 143.632C113.357 144.168 108.875 145.417 104.206 148.988C92.8147 157.201 93.1882 153.987 104.767 143.632C112.61 136.848 117.839 130.242 121.761 122.029C124.936 115.602 131.845 105.783 137.261 100.248C142.49 94.7133 144.544 92.2138 141.743 94.5348C138.942 97.0343 136.701 98.1055 136.701 96.8557C136.701 95.606 149.213 84.0012 150.707 84.0012C150.894 84.0012 150.894 85.7865 150.707 88.1075ZM159.111 93.1065C155.749 105.604 149.587 119.708 147.159 119.887C146.038 120.065 144.358 120.065 143.424 119.887C142.677 119.708 140.809 120.601 139.315 121.672C135.954 124.172 135.954 123.1 139.129 117.387C141.183 113.817 142.117 113.102 143.984 114.888C145.665 116.495 145.852 115.78 145.105 111.674C144.358 107.389 145.665 103.819 151.828 95.0704C155.936 88.8216 159.858 84.0012 160.231 84.5368C160.792 85.0724 160.231 89.0002 159.111 93.1065ZM202.437 96.4987C206.545 103.819 209.72 107.211 212.148 107.211C215.509 107.211 215.509 107.032 211.588 102.926C209.16 100.426 207.666 97.5699 208.039 96.4987C208.786 94.1777 228.208 113.281 228.208 116.316C228.208 117.209 226.901 117.923 225.22 117.923C223.726 117.923 222.793 117.209 223.353 116.316C223.913 115.602 222.793 113.46 220.925 111.853C217.75 108.996 217.377 108.996 216.443 112.388C215.323 116.673 221.299 122.565 228.769 124.172C231.57 124.886 233.811 124.886 233.811 124.35C233.811 121.137 225.967 108.996 219.058 101.498L211.214 93.1065L217.003 94.7133C227.275 97.5699 243.895 113.102 251.552 127.028C259.769 142.204 268.36 151.845 273.402 151.845C275.643 151.845 276.39 152.559 275.643 153.809C273.215 157.736 243.895 154.344 232.504 149.167C227.088 146.489 222.606 143.811 222.606 142.918C222.606 142.025 225.407 142.739 228.769 144.703C231.943 146.489 238.106 148.631 242.215 149.167C246.323 149.881 251.179 150.773 253.046 151.309C254.727 151.666 256.221 151.309 256.221 150.238C256.221 149.167 255.287 148.274 253.98 148.274C252.859 148.274 246.883 144.703 241.094 140.24C235.118 135.776 229.142 132.206 227.461 132.206C221.485 132.206 208.973 116.495 210.841 111.317C211.214 110.246 209.72 108.996 207.479 108.639C204.678 108.282 202.063 105.068 198.328 96.8557C191.419 82.7514 194.22 82.3944 202.437 96.4987ZM157.243 118.637C154.629 123.636 149.213 126.493 151.081 122.208C151.641 120.958 152.761 119.708 153.508 119.708C154.442 119.708 155.749 118.101 156.31 115.959C157.057 113.995 157.99 112.745 158.737 113.281C159.298 113.817 158.551 116.316 157.243 118.637ZM327.186 128.635C335.403 132.563 345.861 141.668 345.861 144.882C345.861 146.31 344.927 146.132 342.499 144.168C340.819 142.561 335.216 140.24 330.361 138.99C320.65 136.491 315.421 137.74 290.023 148.452C282.553 151.666 279.751 152.202 279.191 150.416C278.631 149.345 276.39 148.274 274.149 148.274C270.414 148.274 259.956 140.24 262.01 138.812C263.504 137.919 283.486 129.885 292.637 126.671C303.655 122.565 316.354 123.458 327.186 128.635ZM70.5915 129.528C78.2482 132.563 94.122 143.096 92.8147 144.346C92.4412 144.882 88.893 143.811 85.3447 142.025C81.6097 140.418 78.0615 139.526 77.5012 140.061C76.941 140.597 78.8085 141.847 81.6097 142.918C88.7062 145.417 86.4652 147.024 79.182 144.525C75.8205 143.453 73.206 141.668 73.206 140.597C73.206 138.99 72.8325 138.99 71.712 140.597C70.7782 142.025 69.2842 142.204 67.6035 141.133C65.1757 139.526 65.1757 139.347 67.6035 139.347C72.0855 139.169 65.736 136.134 58.0792 134.884C52.29 133.813 52.6635 134.348 63.495 141.311C69.8445 145.417 74.8867 149.167 74.3265 149.524C73.953 149.881 69.2842 148.274 63.8685 145.596C52.1032 139.883 38.844 138.097 29.5065 141.133C19.7955 144.168 19.2352 142.204 28.1992 136.669C43.326 127.028 58.266 124.529 70.5915 129.528ZM144.171 137.562C144.171 138.455 143.237 139.347 142.117 139.347C141.183 139.347 140.809 138.455 141.37 137.562C141.93 136.491 142.864 135.776 143.424 135.776C143.797 135.776 144.171 136.491 144.171 137.562ZM35.856 143.632C35.856 144.168 35.109 145.06 33.9885 145.596C33.0547 146.132 32.121 145.774 32.121 144.882C32.121 143.811 33.0547 142.918 33.9885 142.918C35.109 142.918 35.856 143.275 35.856 143.632ZM27.4522 150.059C26.892 151.131 27.639 151.309 29.133 150.773C33.2415 149.345 32.868 150.952 28.0125 157.379C22.5967 164.164 22.2232 176.661 27.0787 181.66C31.374 186.481 31.1872 187.016 24.2775 188.087C17.181 188.98 12.5122 187.195 10.8315 182.731C9.52425 179.696 15.8737 162.2 19.9822 157.201C21.2895 155.772 22.7835 153.094 23.3437 151.309C24.0907 149.702 25.398 148.274 26.5185 148.274C27.639 148.274 28.0125 148.988 27.4522 150.059ZM341.566 156.844C344.554 161.129 347.168 157.736 344.18 153.451C341.005 148.452 343.06 147.024 347.728 150.952C350.343 153.094 351.463 156.487 351.463 161.307C351.463 167.199 349.969 170.055 343.06 177.732C338.391 183.088 332.788 187.552 329.987 187.909C324.011 188.98 324.011 187.552 329.987 182.196C338.017 175.054 339.698 164.699 335.403 150.416C334.469 147.203 334.282 147.024 341.566 156.844ZM65.736 186.659C72.0855 189.694 74.1397 195.407 72.459 204.334C70.965 211.654 66.483 216.296 65.3625 211.476C64.8022 208.619 64.6155 208.619 61.4407 211.654C59.013 213.975 58.6395 215.225 60.1335 216.117C62.748 217.724 55.278 226.83 51.3562 226.83C47.6212 226.83 48.555 223.616 53.2237 220.581C56.9587 218.26 57.519 216.832 56.5852 210.404C55.6515 204.691 54.3442 202.192 51.3562 200.942C48.9285 200.049 47.061 198.799 47.061 198.264C47.061 197.728 50.6092 195.943 55.0912 193.979C64.989 189.873 60.8805 187.909 50.2357 191.658C40.5247 195.05 29.88 196.479 24.8377 195.229C19.6087 193.979 19.7955 191.122 25.2112 191.122C27.4522 191.122 34.362 189.516 40.5247 187.73C54.531 183.445 58.8262 183.267 65.736 186.659ZM322.144 194.515C321.583 196.479 319.529 199.514 317.475 201.299C313.553 204.513 313.553 204.513 315.794 200.406C317.662 197.193 317.475 196.479 315.047 196.479C311.686 196.479 311.686 197.55 314.113 211.654C315.421 220.045 317.101 223.259 321.023 226.294C328.12 231.829 324.385 231.471 315.794 225.758C307.577 220.224 304.029 215.582 302.348 207.905C300.854 200.049 309.258 192.372 321.023 191.301C322.144 191.122 322.704 192.551 322.144 194.515Z" fill="#AD7C30"></path></svg> 